<?xml version="1.0" standalone="no"?>
<!DOCTYPE svg PUBLIC "-//W3C//DTD SVG 20010904//EN"
 "http://www.w3.org/TR/2001/REC-SVG-20010904/DTD/svg10.dtd">
<svg version="1.0" xmlns="http://www.w3.org/2000/svg"
 width="220.000000pt" height="105.000000pt" viewBox="0 0 220.000000 105.000000"
 preserveAspectRatio="xMidYMid meet">
<metadata>
Created by potrace 1.16, written by Peter Selinger 2001-2019
</metadata>
<g transform="translate(0.000000,105.000000) scale(0.100000,-0.100000)"
fill="#000000" stroke="none">
<path d="M63 863 c-23 -9 -14 -40 37 -126 28 -47 50 -88 50 -91 0 -12 -93
-171 -104 -178 -6 -4 -7 -8 -3 -8 5 0 -3 -20 -18 -45 -14 -25 -25 -56 -23 -68
3 -21 9 -22 97 -25 77 -2 97 0 112 14 24 22 169 287 169 309 0 27 -70 154
-106 191 -31 34 -33 34 -115 33 -46 0 -90 -3 -96 -6z"/>
<path d="M880 663 c0 -5 -7 -69 -15 -143 -8 -74 -15 -150 -15 -168 l0 -33 48
3 47 3 3 53 c2 28 6 52 10 52 4 0 22 -25 40 -55 l33 -55 100 0 100 0 15 35
c14 34 16 35 68 35 56 0 66 -8 66 -51 0 -18 6 -20 48 -17 26 2 47 7 46 11 -1
4 -16 82 -35 172 l-33 165 -68 0 c-55 0 -68 -3 -68 -16 0 -23 -114 -304 -122
-302 -4 2 -27 32 -52 67 l-45 63 60 89 c32 48 59 91 59 94 0 3 -27 5 -60 5
l-60 0 -36 -55 c-20 -30 -39 -55 -42 -55 -3 0 -2 25 2 55 l6 55 -50 0 c-27 0
-50 -3 -50 -7z"/>
<path d="M1426 633 c9 -52 10 -53 57 -53 l42 0 -12 -102 c-19 -164 -20 -158
26 -158 46 0 47 1 56 115 11 144 12 145 55 145 32 0 40 4 48 28 5 15 13 35 17
45 7 16 -4 17 -144 17 l-152 0 7 -37z"/>
<path d="M1672 516 c-86 -208 -84 -196 -29 -196 43 0 46 2 58 35 13 34 14 35
71 35 l57 0 7 -35 6 -35 159 0 159 0 20 33 c33 53 29 57 -63 57 l-83 0 8 88
c4 48 10 106 13 130 l6 43 -48 -3 -48 -3 -7 -60 c-3 -33 -9 -98 -13 -144 -11
-130 -19 -136 -39 -29 -9 51 -19 105 -20 118 -2 14 -7 46 -11 73 l-7 47 -67 0
-66 0 -63 -154z"/>
<path d="M846 258 c-3 -13 -6 -36 -6 -53 1 -29 1 -29 15 -11 11 15 15 16 15 5
0 -18 48 -18 59 0 6 10 10 9 14 -3 7 -18 47 -22 47 -6 0 7 6 7 19 0 26 -14 51
-3 52 24 1 19 2 18 8 -4 9 -33 39 -38 49 -9 l9 23 5 -22 c8 -31 26 -27 31 6
l4 27 2 -29 c1 -24 3 -27 16 -16 8 7 15 19 15 26 0 8 4 14 9 14 4 0 6 -10 4
-22 -4 -21 0 -23 42 -26 l46 -2 -3 37 c-3 32 -7 38 -25 37 -13 0 -23 5 -23 13
0 7 -7 13 -15 13 -8 0 -15 -4 -15 -10 0 -5 -9 -10 -19 -10 -11 0 -22 -6 -24
-12 -3 -8 -6 -6 -6 5 -1 17 -26 24 -35 9 -2 -4 -23 -7 -46 -5 -34 2 -43 -2
-50 -20 -7 -18 -9 -19 -9 -4 -1 18 -23 47 -36 47 -3 0 -16 -9 -27 -20 -15 -13
-25 -17 -32 -10 -5 5 -20 10 -33 10 -13 0 -23 5 -23 10 0 20 -28 9 -34 -12z"/>
<path d="M1464 255 c-9 -14 -13 -33 -9 -44 8 -25 41 -37 60 -21 10 8 19 9 28
3 21 -16 70 -8 78 13 7 17 8 17 8 -3 1 -22 21 -34 21 -13 0 7 7 7 21 0 15 -8
24 -8 34 0 8 7 15 7 19 1 4 -5 19 -9 34 -8 20 2 28 8 30 25 4 28 22 29 22 2 0
-25 25 -36 45 -20 12 10 18 10 30 0 12 -10 19 -10 27 -2 6 6 18 8 27 3 9 -4
29 -7 46 -7 22 1 31 7 36 26 6 22 7 23 8 4 1 -26 28 -39 46 -24 9 8 14 7 17
-1 6 -19 28 -1 29 24 1 17 3 15 8 -8 l8 -30 13 27 c16 35 7 58 -24 58 -18 0
-26 -6 -29 -22 -3 -17 -5 -14 -6 10 -1 34 -24 45 -35 17 -7 -20 -26 -19 -26 1
0 27 -25 9 -30 -22 -5 -27 -6 -27 -12 -6 -6 22 -32 30 -43 12 -4 -6 -13 -5
-25 2 -14 9 -22 9 -33 -1 -12 -9 -16 -9 -20 1 -4 10 -8 10 -16 -2 -8 -12 -11
-12 -11 -1 0 9 -11 12 -40 9 -22 -2 -40 0 -40 5 0 5 -8 6 -17 2 -10 -4 -28 -7
-41 -6 -15 0 -25 -7 -31 -21 l-8 -22 -6 23 c-8 32 -49 25 -58 -9 l-6 -25 -4
25 c-3 18 -10 25 -26 25 -13 0 -28 6 -35 13 -19 19 -46 14 -64 -13z"/>
</g>
</svg>
